HIERARCHY
ROOT root
{
	OFFSET 0.000000 0.000000 0.000000
	CHANNELS 6 Xposition Yposition Zposition Zrotation Yrotation Xrotation
	JOINT lhip
	{
		OFFSET 0.058581 -0.082280 -0.017664
		CHANNELS 3 Zrotation Yrotation Xrotation
		JOINT lknee
		{
			OFFSET 0.043451 -0.386469 0.008037
			CHANNELS 3 Zrotation Yrotation Xrotation
			JOINT lankle
			{
				OFFSET -0.014790 -0.426874 -0.037428
				CHANNELS 3 Zrotation Yrotation Xrotation
				JOINT ltoe
				{
					OFFSET 0.041054 -0.060286 0.122042
					CHANNELS 3 Zrotation Yrotation Xrotation
					End Site
					{
						OFFSET 0.000000 0.000000 0.000000
					}
				}
			}
		}
	}
	JOINT rhip
	{
		OFFSET -0.060310 -0.090513 -0.013543
		CHANNELS 3 Zrotation Yrotation Xrotation
		JOINT rknee
		{
			OFFSET -0.043257 -0.383688 -0.004843
			CHANNELS 3 Zrotation Yrotation Xrotation
			JOINT rankle
			{
				OFFSET 0.019056 -0.420046 -0.034562
				CHANNELS 3 Zrotation Yrotation Xrotation
				JOINT rtoe
				{
					OFFSET -0.034840 -0.062106 0.130323
					CHANNELS 3 Zrotation Yrotation Xrotation
					End Site
					{
						OFFSET 0.000000 0.000000 0.000000
					}
				}
			}
		}
	}
	JOINT lowerback
	{
		OFFSET 0.004439 0.124404 -0.038385
		CHANNELS 3 Zrotation Yrotation Xrotation
		JOINT upperback
		{
			OFFSET 0.004488 0.137956 0.026820
			CHANNELS 3 Zrotation Yrotation Xrotation
			JOINT chest
			{
				OFFSET -0.002265 0.056032 0.002855
				CHANNELS 3 Zrotation Yrotation Xrotation
				JOINT lowerneck
				{
					OFFSET -0.013390 0.211636 -0.033468
					CHANNELS 3 Zrotation Yrotation Xrotation
					JOINT upperneck
					{
						OFFSET 0.010113 0.088937 0.050410
						CHANNELS 3 Zrotation Yrotation Xrotation
						End Site
						{
							OFFSET 0.000000 0.000000 0.000000
						}
					}
				}
				JOINT lclavicle
				{
					OFFSET 0.071702 0.114000 -0.018898
					CHANNELS 3 Zrotation Yrotation Xrotation
					JOINT lshoulder
					{
						OFFSET 0.122921 0.045205 -0.019046
						CHANNELS 3 Zrotation Yrotation Xrotation
						JOINT lelbow
						{
							OFFSET 0.255332 -0.015649 -0.022946
							CHANNELS 3 Zrotation Yrotation Xrotation
							JOINT lwrist
							{
								OFFSET 0.265709 0.012698 -0.007375
								CHANNELS 3 Zrotation Yrotation Xrotation
								End Site
								{
									OFFSET 0.000000 0.000000 0.000000
								}
							}
						}
					}
				}
				JOINT rclavicle
				{
					OFFSET -0.082954 0.112472 -0.023707
					CHANNELS 3 Zrotation Yrotation Xrotation
					JOINT rshoulder
					{
						OFFSET -0.113228 0.046853 -0.008472
						CHANNELS 3 Zrotation Yrotation Xrotation
						JOINT relbow
						{
							OFFSET -0.260127 -0.014369 -0.031269
							CHANNELS 3 Zrotation Yrotation Xrotation
							JOINT rwrist
							{
								OFFSET -0.269108 0.006794 -0.006027
								CHANNELS 3 Zrotation Yrotation Xrotation
								End Site
								{
									OFFSET 0.000000 0.000000 0.000000
								}
							}
						}
					}
				}
			}
		}
	}
}
MOTION
Frames: 16
Frame Time: 0.033333
0.505839 0.752522 0.984754 -85.831088 4.205830 87.890798 2.692985 -0.344189 5.605769 -2.244434 -14.684219 2.436874 6.467527 9.161465 -19.859149 0.000000 -0.000000 0.000000 2.697906 -1.264903 0.626123 2.699610 4.330897 9.716992 2.943009 -4.607134 -15.069646 0.000000 -0.000000 0.000000 -2.470416 1.860579 3.851073 1.708448 -2.168279 0.375544 2.139322 -1.905508 3.446773 4.478452 1.598575 -7.918186 3.312164 -2.558115 -4.090259 -27.287712 1.697000 2.951915 -60.667580 -4.310018 8.116907 9.934131 -18.923288 5.547058 -2.161162 -1.660079 -6.857055 24.608633 -0.829465 1.220404 61.333735 1.033359 10.947570 -13.959928 23.985561 -3.193733 6.941630 0.640182 -10.579943 
0.507179 0.752239 0.983758 -86.064965 4.137587 87.367805 2.659084 -0.216792 6.016113 -2.276593 -14.473294 2.421917 6.497303 8.971215 -19.739242 0.000000 -0.000000 0.000000 2.505094 -1.467412 1.094415 2.730689 4.138952 9.629756 2.616767 -4.070516 -14.842698 0.000000 -0.000000 0.000000 -2.325307 1.239993 4.173122 1.575908 -2.746959 1.433924 1.935421 -1.237352 2.771565 3.892003 1.428254 -6.369582 2.203437 -2.821848 -4.188094 -26.666874 2.032844 2.763963 -61.238316 -4.385315 8.057750 10.066223 -19.741741 5.585158 -2.555618 -1.632765 -7.761914 24.010980 0.017656 1.639950 62.225061 1.781146 11.044389 -14.105501 23.299566 -3.231387 7.039255 0.390375 -11.047012 
0.508276 0.751726 0.983936 -86.297215 4.109251 87.488668 2.547066 -0.409121 5.875149 -2.270387 -14.181793 2.410099 6.332435 9.376390 -19.513996 0.000000 -0.000000 0.000000 2.455245 -1.225317 0.826638 2.774971 4.247017 9.626227 2.707236 -4.086026 -14.707151 0.000000 -0.000000 0.000000 -2.317111 1.291829 3.883921 1.599298 -2.657007 1.498674 1.925413 -1.215895 2.952694 4.217440 1.300283 -6.883419 2.238056 -3.091464 -3.771939 -26.807252 1.983333 2.581666 -61.274552 -4.643450 8.339263 10.074646 -20.332634 5.481115 -2.628355 -1.728144 -7.804036 24.048003 0.066705 1.520375 62.149249 1.977209 11.194858 -14.174936 23.038280 -3.436765 6.955360 0.499224 -10.886532 
0.509181 0.751248 0.984370 -86.297417 4.112375 87.412998 2.499106 -0.499530 5.868851 -2.259704 -14.218431 2.461480 6.291692 9.385299 -19.545584 0.000000 -0.000000 0.000000 2.451003 -1.195490 0.931330 2.767338 4.259784 9.441169 2.759106 -4.186957 -14.628340 0.000000 -0.000000 0.000000 -2.390175 1.483760 3.709321 1.734701 -2.564333 1.685148 2.020315 -1.392901 3.143631 4.444720 1.157804 -7.673945 2.232942 -3.291250 -3.746723 -26.959766 1.762605 2.404113 -61.441256 -4.949587 8.592074 10.118468 -21.081089 5.413486 -2.235929 -1.798336 -7.704444 24.008318 0.118439 1.373655 61.977535 1.913738 11.235234 -14.241981 23.214029 -3.664117 6.789038 0.545977 -10.828359 
0.510015 0.750949 0.984474 -86.302043 4.093778 87.494793 2.413379 -0.633733 5.651056 -2.231311 -14.090669 2.582647 6.351879 9.460461 -19.566466 0.000000 -0.000000 0.000000 2.443895 -1.097078 0.693392 2.728605 4.186017 9.651166 2.816840 -4.233774 -14.650060 0.000000 -0.000000 0.000000 -2.294787 1.486726 3.704843 1.691421 -2.516718 1.504405 1.937369 -1.417237 3.211594 4.457325 1.228605 -7.720101 2.167317 -3.326373 -3.389163 -26.941068 1.783406 2.340574 -61.576304 -5.132745 8.733488 10.152958 -21.477829 5.366196 -2.218575 -2.002561 -7.842414 24.089594 0.060124 1.345313 61.998480 1.934419 11.384278 -14.424915 23.219139 -3.730998 6.749412 0.632524 -10.773297 
0.510498 0.750801 0.984517 -86.360273 4.080753 87.343677 2.406693 -0.560888 5.760101 -2.269155 -14.114905 2.632442 6.485690 9.422052 -19.612516 0.000000 -0.000000 0.000000 2.356122 -1.119754 0.813210 2.800177 4.057327 9.651514 2.799934 -4.066526 -14.625964 0.000000 -0.000000 0.000000 -2.285668 1.476162 3.880798 1.644946 -2.528558 1.441016 1.971187 -1.378443 3.044152 3.850276 1.411892 -6.569706 2.079434 -2.753772 -3.756398 -26.777694 1.758471 2.530028 -61.858688 -5.185512 8.732315 9.987947 -22.250595 5.765462 -2.483058 -1.893159 -8.266060 23.906225 0.040639 1.695588 62.169538 1.996991 11.127111 -14.462349 23.425967 -3.594449 6.936612 0.618690 -10.865097 
0.510894 0.750597 0.984573 -86.344853 4.069388 87.353179 2.368726 -0.619357 5.735424 -2.247430 -14.104708 2.553012 6.541981 9.337027 -19.533244 0.000000 -0.000000 0.000000 2.393304 -1.018498 0.723322 2.703761 4.063607 9.717662 2.824500 -4.172650 -14.638441 0.000000 -0.000000 0.000000 -2.321354 1.449127 3.849703 1.645491 -2.505097 1.317656 1.953238 -1.389452 2.979995 3.855355 1.266740 -6.545270 2.152064 -2.836636 -3.797319 -26.741635 1.731008 2.696481 -62.016032 -5.302648 8.925771 9.904297 -22.951044 6.073814 -2.696622 -1.925446 -8.401331 23.921501 0.002964 1.719436 62.141401 1.882057 11.124057 -14.382804 23.442802 -3.569175 7.138018 0.645270 -10.949167 
0.511373 0.750377 0.984835 -86.434897 4.024551 87.346973 2.277926 -0.593637 5.771273 -2.181606 -14.149738 2.382111 6.690528 9.177702 -19.649976 0.000000 -0.000000 0.000000 2.337034 -0.975834 0.639499 2.689536 4.054493 9.814679 2.882490 -4.152459 -14.699312 0.000000 -0.000000 0.000000 -2.348532 1.444790 3.908015 1.637042 -2.436994 1.062254 1.948791 -1.438191 3.077264 3.917837 1.304064 -6.433352 2.075185 -2.874867 -3.420828 -26.738250 1.857937 2.588580 -62.221253 -5.400890 9.120772 9.895678 -23.172038 6.239482 -2.414774 -2.478246 -8.418971 23.894797 -0.126869 1.578975 62.086931 1.803032 11.329277 -14.185634 23.426862 -3.361004 6.982918 0.818073 -10.975840 
0.511703 0.750185 0.984932 -86.490470 4.027302 87.356007 2.231641 -0.573413 5.688001 -2.157963 -14.001105 2.583846 6.546648 9.450874 -19.491822 0.000000 -0.000000 0.000000 2.314918 -1.005296 0.560857 2.697135 4.085504 9.893911 2.936135 -4.061841 -14.692865 0.000000 -0.000000 0.000000 -2.342483 1.456776 3.828448 1.637857 -2.428496 1.024318 1.933290 -1.436706 3.125647 3.943944 1.175630 -6.268745 2.117085 -2.967148 -3.132596 -26.763660 1.849902 2.515148 -62.340319 -5.538209 9.216356 9.718163 -23.382984 6.123437 -2.288366 -2.319097 -8.344392 23.988383 -0.084289 1.679863 61.980133 1.828070 11.366379 -14.215202 23.480744 -3.492217 7.005694 0.810379 -10.917236 
0.511849 0.750170 0.985076 -86.646332 4.020764 87.187791 2.189612 -0.484803 5.973807 -2.106209 -14.082644 2.440102 6.575132 9.545604 -19.464041 0.000000 -0.000000 0.000000 2.292404 -0.962277 0.775646 2.674730 4.128496 9.777472 2.938568 -4.039545 -14.653088 0.000000 -0.000000 0.000000 -2.351495 1.440794 3.896721 1.655834 -2.409471 1.112430 1.938866 -1.421772 3.090131 3.967083 1.154400 -5.992672 2.064689 -2.902658 -3.089273 -26.927649 1.728944 2.547779 -62.331263 -5.550300 9.270365 9.870442 -23.554203 6.219242 -2.613176 -2.155057 -8.352954 24.010949 0.022810 1.758782 61.965359 1.846350 11.325856 -14.199624 23.433099 -3.538046 7.137608 0.744945 -10.871459 
0.512180 0.750337 0.985086 -86.687406 4.067732 87.176014 2.262217 -0.422589 5.958221 -2.131337 -14.050849 2.480425 6.505795 9.501718 -19.529541 0.000000 -0.000000 0.000000 2.320313 -0.981171 0.764329 2.717206 4.214942 9.790661 2.951384 -3.968521 -14.683402 0.000000 -0.000000 0.000000 -2.320397 1.432699 3.949307 1.672117 -2.404411 1.008434 1.949029 -1.442768 3.107653 3.982226 1.131911 -5.872017 2.058068 -2.949592 -2.905424 -26.955406 1.699750 2.517492 -62.469023 -5.592685 9.321455 9.937525 -23.405930 6.199482 -2.343685 -2.100439 -8.254990 24.021180 0.051817 1.764476 61.969836 1.860461 11.347298 -14.198025 23.319697 -3.559191 6.997146 0.710866 -10.795991 
0.512511 0.750349 0.985189 -86.734947 4.071399 87.280974 2.220394 -0.475885 5.853744 -2.083865 -14.060358 2.431981 6.465630 9.494806 -19.524554 0.000000 -0.000000 0.000000 2.322914 -0.956318 0.646391 2.709712 4.289772 9.742574 2.972215 -4.052391 -14.569193 0.000000 -0.000000 0.000000 -2.299806 1.393359 3.910539 1.691935 -2.426134 0.902481 1.952105 -1.423970 3.178438 4.392590 0.596502 -7.121905 2.228547 -3.625773 -3.209147 -27.108099 1.752331 2.327139 -62.290491 -5.512028 9.420637 9.786170 -23.253470 6.318409 -2.457814 -2.390761 -8.261213 24.079716 0.072236 1.542655 61.887940 1.728788 11.441846 -14.119665 23.179433 -3.519833 6.945700 0.813461 -10.745287 
0.512658 0.750517 0.985102 -86.772268 4.075841 87.275168 2.225599 -0.420988 5.862486 -2.074088 -14.005025 2.472265 6.452113 9.448245 -19.515611 0.000000 -0.000000 0.000000 2.291256 -1.038342 0.683086 2.733364 4.302529 9.681521 3.005509 -4.029505 -14.526539 0.000000 -0.000000 0.000000 -2.313740 1.407849 3.964058 1.688036 -2.448668 0.842586 1.954374 -1.451995 3.140190 4.393993 0.443507 -6.887660 2.315875 -3.682537 -3.200606 -27.073007 1.796204 2.371601 -62.296937 -5.495424 9.352970 9.755841 -23.111093 6.257542 -2.280540 -2.300613 -8.197673 24.047889 0.106339 1.559108 61.888573 1.649738 11.456082 -13.990384 23.178591 -3.426113 6.909239 0.736329 -10.732745 
0.512984 0.750595 0.985054 -86.723768 4.102697 87.284677 2.267490 -0.443944 5.780899 -2.120294 -14.041727 2.590088 6.449631 9.531302 -19.556635 0.000000 -0.000000 0.000000 2.328625 -1.017077 0.677135 2.731621 4.239520 9.637550 2.997203 -3.986979 -14.580721 0.000000 -0.000000 0.000000 -2.285730 1.357411 4.023283 1.696682 -2.480307 0.742599 1.941639 -1.436945 3.154835 4.409401 0.417007 -6.764238 2.266968 -3.661038 -3.141947 -27.030347 1.872345 2.404978 -62.231730 -5.469341 9.340769 9.635185 -22.953815 6.338139 -2.430192 -2.243017 -8.164732 23.994126 0.081054 1.514789 62.023563 1.549460 11.435312 -14.045627 23.079825 -3.455969 6.936796 0.666428 -10.846685 
0.513147 0.750739 0.985166 -86.742216 4.082925 87.309700 2.245440 -0.471714 5.730483 -2.111923 -13.999417 2.632388 6.507820 9.592250 -19.532543 0.000000 -0.000000 0.000000 2.345104 -1.017195 0.650291 2.677588 4.292803 9.595320 3.018835 -4.176009 -14.438708 0.000000 -0.000000 0.000000 -2.364674 1.354952 4.014803 1.741683 -2.490751 0.684982 1.991264 -1.497599 3.228574 4.633180 0.172592 -7.435347 2.288070 -3.975965 -3.157863 -27.145192 2.013500 2.265772 -62.116987 -5.399674 9.276537 9.551897 -22.516679 6.165982 -2.391591 -2.307448 -8.056383 24.123715 0.051166 1.365423 61.830656 1.472585 11.565919 -14.026092 23.012722 -3.514456 6.812354 0.633644 -10.639478 
0.513104 0.750866 0.984910 -86.704940 4.120636 87.225707 2.323812 -0.398967 5.776828 -2.166524 -14.060434 2.695604 6.443682 9.475781 -19.616571 0.000000 -0.000000 0.000000 2.382624 -1.079487 0.718291 2.707341 4.306707 9.652887 2.996967 -4.088080 -14.533238 0.000000 -0.000000 0.000000 -2.339960 1.316237 4.128205 1.706291 -2.515789 0.655314 1.988105 -1.486439 3.150399 4.119336 0.491934 -6.715805 2.044512 -3.529722 -3.309657 -26.943759 2.014078 2.461072 -62.198731 -5.296236 9.153367 9.725829 -22.192101 6.404011 -2.388616 -2.275927 -8.211979 24.111333 -0.021095 1.494937 61.895460 1.518667 11.419190 -13.985760 22.924826 -3.363912 6.832171 0.608037 -10.709494 
